<!-- <svg width="283" height="64" viewBox="0 0 283 64" fill="none" 
    xmlns="http://www.w3.org/2000/svg">
    <path d="M141.04 16c-11.04 0-19 7.2-19 18s8.96 18 20 18c6.67 0 12.55-2.64 16.19-7.09l-7.65-4.42c-2.02 2.21-5.09 3.5-8.54 3.5-4.79 0-8.86-2.5-10.37-6.5h28.02c.22-1.12.35-2.28.35-3.5 0-10.79-7.96-17.99-19-17.99zm-9.46 14.5c1.25-3.99 4.67-6.5 9.45-6.5 4.79 0 8.21 2.51 9.45 6.5h-18.9zM248.72 16c-11.04 0-19 7.2-19 18s8.96 18 20 18c6.67 0 12.55-2.64 16.19-7.09l-7.65-4.42c-2.02 2.21-5.09 3.5-8.54 3.5-4.79 0-8.86-2.5-10.37-6.5h28.02c.22-1.12.35-2.28.35-3.5 0-10.79-7.96-17.99-19-17.99zm-9.45 14.5c1.25-3.99 4.67-6.5 9.45-6.5 4.79 0 8.21 2.51 9.45 6.5h-18.9zM200.24 34c0 6 3.92 10 10 10 4.12 0 7.21-1.87 8.8-4.92l7.68 4.43c-3.18 5.3-9.14 8.49-16.48 8.49-11.05 0-19-7.2-19-18s7.96-18 19-18c7.34 0 13.29 3.19 16.48 8.49l-7.68 4.43c-1.59-3.05-4.68-4.92-8.8-4.92-6.07 0-10 4-10 10zm82.48-29v46h-9V5h9zM36.95 0L73.9 64H0L36.95 0zm92.38 5l-27.71 48L73.91 5H84.3l17.32 30 17.32-30h10.39zm58.91 12v9.69c-1-.29-2.06-.49-3.2-.49-5.81 0-10 4-10 10V51h-9V17h9v9.2c0-5.08 5.91-9.2 13.2-9.2z" fill="#000"/>
</svg> -->

<svg version="1.0" xmlns="http://www.w3.org/2000/svg"
 width="512.000000pt" height="512.000000pt" viewBox="0 0 512.000000 512.000000"
 preserveAspectRatio="xMidYMid meet">

<g transform="translate(0.000000,512.000000) scale(0.100000,-0.100000)"
fill="#000000" stroke="none">
<path d="M2370 5110 c-206 -26 -386 -81 -575 -175 -452 -226 -786 -646 -905
-1140 -38 -156 -50 -259 -50 -425 0 -285 63 -492 200 -665 26 -33 67 -75 90
-94 23 -18 40 -34 38 -36 -2 -2 -55 8 -118 22 -175 38 -266 21 -354 -64 -67
-65 -89 -122 -94 -245 l-5 -108 -47 0 c-103 0 -192 -55 -245 -151 -28 -52 -30
-61 -33 -201 -3 -120 -1 -157 13 -203 35 -109 134 -187 257 -201 l57 -6 3
-432 c3 -425 3 -432 26 -481 29 -64 90 -126 150 -154 27 -12 380 -93 810 -186
l764 -165 210 0 209 0 767 166 c520 113 781 174 812 189 59 30 113 88 142 150
23 49 23 55 26 481 l3 432 57 6 c123 14 222 92 257 201 14 46 16 83 13 203 -3
140 -5 149 -33 201 -53 96 -142 151 -246 151 l-47 0 -4 103 c-4 119 -30 187
-93 249 -88 87 -178 103 -355 65 -63 -14 -116 -24 -118 -22 -2 2 15 18 38 36
135 109 239 310 276 535 22 137 14 427 -16 569 -47 221 -136 441 -250 615
-176 269 -400 468 -685 609 -241 120 -442 170 -710 176 -88 2 -194 0 -235 -5z
m764 -825 c188 -81 367 -225 445 -358 74 -126 80 -157 92 -485 11 -275 13
-299 32 -319 11 -13 29 -23 40 -23 18 0 19 -5 13 -52 -3 -29 -6 -62 -6 -73 0
-14 -10 -24 -30 -32 -38 -14 -50 -46 -50 -131 0 -37 -7 -96 -14 -132 -15 -70
-57 -173 -75 -184 -6 -4 -195 -47 -422 -96 l-411 -90 -186 0 -186 0 -414 90
c-306 67 -419 95 -428 108 -7 9 -25 49 -39 87 -34 91 -45 217 -45 545 l0 255
78 1 c89 2 163 27 252 86 58 39 164 136 218 200 l31 38 37 -25 c49 -33 73 -39
149 -33 121 10 292 115 474 292 102 99 213 228 276 319 45 67 41 67 169 12z
m-1514 -1970 l655 -142 5 -256 c4 -226 7 -258 22 -274 23 -22 83 -21 109 3 18
16 19 33 19 266 l0 248 125 0 125 0 0 -1005 0 -1005 -125 0 -125 0 0 643 c0
609 -1 645 -18 660 -30 28 -74 31 -102 9 l-25 -20 -5 -634 -5 -634 -705 153
c-388 83 -720 160 -738 169 -18 10 -41 32 -52 49 -19 31 -20 52 -20 467 l0
435 39 26 c22 15 51 41 65 60 47 61 56 106 56 277 0 156 0 157 -31 219 -23 46
-45 72 -80 98 l-49 35 0 102 c0 92 2 105 25 139 14 20 27 37 28 37 1 0 20 7
42 15 24 8 54 12 75 8 19 -3 330 -70 690 -148z m2681 124 c48 -34 62 -73 67
-181 l4 -96 -28 -15 c-37 -20 -97 -82 -120 -127 -16 -29 -19 -63 -22 -202 -4
-161 -3 -170 21 -222 26 -56 93 -130 128 -141 19 -6 20 -17 17 -438 -3 -479
-3 -476 -71 -517 -35 -22 -8 -16 -817 -190 -333 -72 -613 -133 -623 -136 -16
-5 -17 45 -15 998 l3 1003 670 147 c708 155 729 158 786 117z m-3595 -428 c51
-31 64 -73 64 -205 0 -189 -27 -226 -167 -226 -151 0 -176 29 -181 207 -4 109
-2 127 17 167 29 58 65 75 161 76 56 0 83 -5 106 -19z m3921 2 c56 -26 73 -75
73 -211 0 -183 -30 -222 -175 -222 -146 0 -175 38 -175 227 0 136 13 174 71
205 44 24 157 25 206 1z"/>
<path d="M1993 3332 c-53 -8 -100 -109 -88 -189 l6 -43 -33 0 c-94 0 -150 -47
-128 -106 18 -48 37 -55 125 -49 59 5 95 2 135 -10 98 -29 119 -30 146 -4 42
40 27 94 -38 134 -14 9 -15 17 -5 63 14 65 -2 134 -40 174 -27 28 -46 36 -80
30z"/>
<path d="M3080 3322 c-46 -23 -70 -74 -70 -144 0 -31 4 -68 10 -82 8 -23 6
-27 -24 -41 -45 -21 -63 -63 -44 -102 20 -42 58 -51 121 -27 40 14 78 19 160
19 102 0 110 1 128 24 25 31 24 64 -3 96 -18 20 -36 26 -83 31 l-61 6 4 62 c3
50 -1 69 -20 105 -32 59 -71 77 -118 53z"/>
<path d="M2268 2793 c-8 -10 -18 -26 -22 -36 -17 -51 86 -176 182 -220 71 -33
198 -31 272 4 30 14 70 39 89 55 45 37 91 111 91 144 0 35 -38 70 -77 70 -35
0 -50 -12 -82 -64 -24 -38 -108 -86 -150 -86 -75 0 -138 41 -194 123 -14 21
-26 27 -56 27 -24 0 -44 -7 -53 -17z"/>
<path d="M3660 1905 c-388 -86 -427 -96 -447 -120 -13 -14 -23 -36 -23 -49 0
-27 33 -64 63 -71 12 -2 215 37 450 89 463 101 470 103 470 166 0 36 -26 67
-63 73 -14 3 -216 -37 -450 -88z"/>
<path d="M3665 1626 c-231 -51 -427 -96 -437 -100 -9 -4 -22 -21 -28 -37 -15
-36 -3 -70 33 -94 23 -15 49 -10 463 79 472 103 477 105 477 167 0 35 -40 80
-71 78 -9 0 -206 -42 -437 -93z"/>
</g>
</svg>